<?xml version="1.0" encoding="UTF-8" standalone="no"?>
<!-- Uploaded to: SVG Repo, www.svgrepo.com, Generator: SVG Repo Mixer Tools -->
<svg width="800px" height="800px" viewBox="0 -41 256 256" version="1.1" xmlns="http://www.w3.org/2000/svg" xmlns:xlink="http://www.w3.org/1999/xlink" preserveAspectRatio="xMidYMid"><g fill="#00979C"><path d="M190.275,120.327 C173.987,120.327 160.061,114.835 147.805,103.602 C140.234,96.665 133.992,88.166 128.249,79.329 C122.507,88.166 116.264,96.665 108.694,103.602 C95.525,115.671 80.427,121.113 62.545,120.236 C28.444,120.088 0.747,93.176 0.747,60.118 C0.747,26.969 28.596,0 62.827,0 C81.559,0 97.33,6.199 111.037,18.95 C117.621,25.075 123.179,32.18 128.249,39.614 C133.319,32.18 138.878,25.075 145.461,18.95 C159.168,6.199 174.939,0 193.671,0 C227.903,0 255.751,26.969 255.751,60.118 C255.751,93.176 228.055,120.088 193.953,120.236 C192.714,120.297 191.487,120.327 190.275,120.327 L190.275,120.327 Z M140.72,59.316 C147.514,70.339 154.108,80.599 162.14,87.959 C171.206,96.268 180.762,99.686 193.115,99.033 L193.671,99.018 C216.202,99.018 234.533,81.568 234.533,60.118 C234.533,38.669 216.202,21.218 193.671,21.218 C180.37,21.218 169.643,25.434 159.913,34.485 C152.646,41.246 146.646,49.908 140.72,59.316 L140.72,59.316 Z M62.827,21.218 C40.296,21.218 21.965,38.669 21.965,60.118 C21.965,81.568 40.296,99.018 62.827,99.018 L63.384,99.033 C75.738,99.686 85.292,96.268 94.358,87.959 C102.39,80.599 108.985,70.339 115.778,59.316 C109.852,49.908 103.852,41.246 96.586,34.485 C86.855,25.434 76.128,21.218 62.827,21.218 L62.827,21.218 Z"></path><path d="M196.477,52.407 L196.477,40.901 L184.501,40.901 L184.501,52.407 L172.996,52.407 L172.996,64.325 L184.501,64.325 L184.501,75.916 L196.477,75.916 L196.477,64.325 L207.983,64.325 L207.983,52.407 L196.477,52.407"></path><path d="M45.599,52.263 L83.416,52.263 L83.416,64.555 L45.599,64.555 L45.599,52.263 Z"></path></g></svg>